<svg width="148" height="186" viewBox="0 0 148 186" fill="none" xmlns="http://www.w3.org/2000/svg">
<path d="M140.28 106.419L102.817 152.593L5.16908 73.6643L42.4296 27.216L140.28 106.419Z" fill="#015AE8"/>
<path d="M117.538 0.131745C126.915 -1.02817 135.461 5.59974 136.626 14.9356L139.755 40.0125C140.921 49.3571 134.251 57.8709 124.864 59.0195L5.16908 73.6643L0.123236 31.7465C-0.997716 22.4343 5.65295 13.9718 15.0011 12.8155L117.538 0.131745Z" fill="url(#paint0_linear_223_333)"/>
<path d="M34.6484 185.72C25.3533 187.411 16.4413 181.279 14.7429 172.025L10.2811 147.713C8.58581 138.476 14.7185 129.615 23.9917 127.903L140.351 106.419L147.735 147.925C149.377 157.153 143.223 165.968 133.964 167.652L34.6484 185.72Z" fill="url(#paint1_linear_223_333)"/>
<defs>
<linearGradient id="paint0_linear_223_333" x1="-91.8833" y1="228.923" x2="195.353" y2="211.859" gradientUnits="userSpaceOnUse">
<stop stop-color="#00226E"/>
<stop offset="1" stop-color="#0059E8"/>
</linearGradient>
<linearGradient id="paint1_linear_223_333" x1="-91.8833" y1="228.923" x2="195.353" y2="211.859" gradientUnits="userSpaceOnUse">
<stop stop-color="#00226E"/>
<stop offset="1" stop-color="#0059E8"/>
</linearGradient>
</defs>
</svg>
